<svg width="24" height="24" viewBox="0 0 24 24" fill="none" xmlns="http://www.w3.org/2000/svg">
<path d="M11.979 0C5.678 0 0.510999 4.86 0.0219994 11.037L6.454 13.695C6.999 13.324 7.657 13.105 8.366 13.105C8.429 13.105 8.491 13.109 8.554 13.111L11.415 8.969V8.91C11.415 6.415 13.443 4.386 15.939 4.386C18.433 4.386 20.463 6.417 20.463 8.913C20.463 11.409 18.433 13.438 15.939 13.438H15.834L11.758 16.349C11.758 16.401 11.762 16.454 11.762 16.508C11.762 18.383 10.247 19.904 8.372 19.904C6.737 19.904 5.356 18.731 5.041 17.177L0.435999 15.27C1.862 20.307 6.486 24 11.979 24C18.606 24 23.978 18.627 23.978 12C23.978 5.373 18.605 0 11.979 0ZM7.54 18.21L6.067 17.6C6.329 18.143 6.781 18.599 7.381 18.85C8.678 19.389 10.174 18.774 10.713 17.475C10.976 16.845 10.977 16.156 10.718 15.526C10.459 14.896 9.968 14.405 9.341 14.143C8.717 13.883 8.051 13.894 7.463 14.113L8.986 14.743C9.942 15.143 10.395 16.243 9.995 17.198C9.598 18.155 8.497 18.608 7.54 18.21ZM18.955 8.907C18.955 7.245 17.602 5.892 15.94 5.892C14.275 5.892 12.925 7.245 12.925 8.907C12.925 10.572 14.275 11.922 15.94 11.922C17.603 11.922 18.955 10.572 18.955 8.907ZM13.682 8.902C13.682 7.65 14.695 6.636 15.947 6.636C17.196 6.636 18.213 7.65 18.213 8.902C18.213 10.153 17.196 11.167 15.947 11.167C14.694 11.167 13.682 10.153 13.682 8.902Z" fill="white"/>
</svg>
